<mxfile host="app.diagrams.net" modified="2023-07-08T14:44:48.046Z" agent="Mozilla/5.0 (X11; Linux x86_64; rv:109.0) Gecko/20100101 Firefox/115.0" etag="xFBUlD5x7f2DVGkLlAym" version="21.6.1" type="github">
  <diagram name="Pagina-1" id="rzBkRvhalcEUz-NghZih">
    <mxGraphModel dx="880" dy="485" grid="1" gridSize="10" guides="1" tooltips="1" connect="1" arrows="1" fold="1" page="1" pageScale="1" pageWidth="827" pageHeight="1169" math="0" shadow="0">
      <root>
        <mxCell id="0" />
        <mxCell id="1" parent="0" />
        <mxCell id="x_l_j-Csq6JPJfXTSIvp-1" value="2 pages register" style="rounded=0;whiteSpace=wrap;html=1;" parent="1" vertex="1">
          <mxGeometry x="260" y="120" width="310" height="60" as="geometry" />
        </mxCell>
        <mxCell id="x_l_j-Csq6JPJfXTSIvp-3" value="&lt;div&gt;memory&lt;/div&gt;&lt;div&gt;manager&lt;br&gt;&lt;/div&gt;" style="rounded=0;whiteSpace=wrap;html=1;" parent="1" vertex="1">
          <mxGeometry x="260" y="280" width="160" height="190" as="geometry" />
        </mxCell>
        <mxCell id="x_l_j-Csq6JPJfXTSIvp-5" value="page 1" style="rounded=0;whiteSpace=wrap;html=1;" parent="1" vertex="1">
          <mxGeometry x="590" y="300" width="120" height="30" as="geometry" />
        </mxCell>
        <mxCell id="x_l_j-Csq6JPJfXTSIvp-6" value="page 2" style="rounded=0;whiteSpace=wrap;html=1;" parent="1" vertex="1">
          <mxGeometry x="590" y="330" width="120" height="30" as="geometry" />
        </mxCell>
        <mxCell id="x_l_j-Csq6JPJfXTSIvp-7" value="" style="endArrow=none;dashed=1;html=1;dashPattern=1 3;strokeWidth=2;rounded=0;exitX=0.5;exitY=1;exitDx=0;exitDy=0;" parent="1" source="x_l_j-Csq6JPJfXTSIvp-6" edge="1">
          <mxGeometry width="50" height="50" relative="1" as="geometry">
            <mxPoint x="566" y="320" as="sourcePoint" />
            <mxPoint x="650" y="400" as="targetPoint" />
          </mxGeometry>
        </mxCell>
        <mxCell id="x_l_j-Csq6JPJfXTSIvp-9" value="page n" style="rounded=0;whiteSpace=wrap;html=1;" parent="1" vertex="1">
          <mxGeometry x="591" y="400" width="120" height="30" as="geometry" />
        </mxCell>
        <mxCell id="x_l_j-Csq6JPJfXTSIvp-10" value="" style="shape=partialRectangle;whiteSpace=wrap;html=1;bottom=1;right=1;left=1;top=0;fillColor=none;routingCenterX=-0.5;direction=south;" parent="1" vertex="1">
          <mxGeometry x="580" y="290" width="90" height="150" as="geometry" />
        </mxCell>
        <mxCell id="x_l_j-Csq6JPJfXTSIvp-11" value="cache memory" style="text;html=1;strokeColor=none;fillColor=none;align=center;verticalAlign=middle;whiteSpace=wrap;rounded=0;" parent="1" vertex="1">
          <mxGeometry x="580" y="250" width="120" height="30" as="geometry" />
        </mxCell>
        <mxCell id="x_l_j-Csq6JPJfXTSIvp-13" value="" style="shape=flexArrow;endArrow=classic;html=1;rounded=0;" parent="1" edge="1">
          <mxGeometry width="50" height="50" relative="1" as="geometry">
            <mxPoint x="420" y="360" as="sourcePoint" />
            <mxPoint x="580" y="360" as="targetPoint" />
          </mxGeometry>
        </mxCell>
        <mxCell id="x_l_j-Csq6JPJfXTSIvp-18" value="" style="endArrow=classic;html=1;rounded=0;entryX=0.8;entryY=1;entryDx=0;entryDy=0;entryPerimeter=0;" parent="1" target="x_l_j-Csq6JPJfXTSIvp-10" edge="1">
          <mxGeometry width="50" height="50" relative="1" as="geometry">
            <mxPoint x="420" y="410" as="sourcePoint" />
            <mxPoint x="520" y="370" as="targetPoint" />
          </mxGeometry>
        </mxCell>
        <mxCell id="x_l_j-Csq6JPJfXTSIvp-19" value="" style="endArrow=classic;html=1;rounded=0;entryX=1;entryY=0.25;entryDx=0;entryDy=0;" parent="1" target="x_l_j-Csq6JPJfXTSIvp-10" edge="1">
          <mxGeometry width="50" height="50" relative="1" as="geometry">
            <mxPoint x="420" y="470" as="sourcePoint" />
            <mxPoint x="580" y="470" as="targetPoint" />
            <Array as="points">
              <mxPoint x="648" y="470" />
            </Array>
          </mxGeometry>
        </mxCell>
        <mxCell id="x_l_j-Csq6JPJfXTSIvp-20" value="page address" style="text;html=1;strokeColor=none;fillColor=none;align=center;verticalAlign=middle;whiteSpace=wrap;rounded=0;" parent="1" vertex="1">
          <mxGeometry x="450" y="330" width="80" height="30" as="geometry" />
        </mxCell>
        <mxCell id="x_l_j-Csq6JPJfXTSIvp-22" value="&lt;div&gt;Page&lt;/div&gt;&lt;div&gt;data&lt;br&gt;&lt;/div&gt;" style="text;html=1;strokeColor=none;fillColor=none;align=center;verticalAlign=middle;whiteSpace=wrap;rounded=0;" parent="1" vertex="1">
          <mxGeometry x="520" y="220" width="60" height="30" as="geometry" />
        </mxCell>
        <mxCell id="x_l_j-Csq6JPJfXTSIvp-24" value="enable" style="text;html=1;strokeColor=none;fillColor=none;align=center;verticalAlign=middle;whiteSpace=wrap;rounded=0;" parent="1" vertex="1">
          <mxGeometry x="450" y="380" width="60" height="30" as="geometry" />
        </mxCell>
        <mxCell id="x_l_j-Csq6JPJfXTSIvp-25" value="Write enable" style="text;html=1;strokeColor=none;fillColor=none;align=center;verticalAlign=middle;whiteSpace=wrap;rounded=0;" parent="1" vertex="1">
          <mxGeometry x="450" y="440" width="60" height="30" as="geometry" />
        </mxCell>
        <mxCell id="x_l_j-Csq6JPJfXTSIvp-27" value="" style="shape=curlyBracket;whiteSpace=wrap;html=1;rounded=1;flipH=1;labelPosition=right;verticalLabelPosition=middle;align=left;verticalAlign=middle;size=0.5;" parent="1" vertex="1">
          <mxGeometry x="720" y="300" width="20" height="30" as="geometry" />
        </mxCell>
        <mxCell id="x_l_j-Csq6JPJfXTSIvp-28" value="page block" style="text;html=1;strokeColor=none;fillColor=none;align=center;verticalAlign=middle;whiteSpace=wrap;rounded=0;" parent="1" vertex="1">
          <mxGeometry x="750" y="300" width="60" height="30" as="geometry" />
        </mxCell>
        <mxCell id="x_l_j-Csq6JPJfXTSIvp-40" value="" style="endArrow=classic;html=1;rounded=0;entryX=0.129;entryY=1.066;entryDx=0;entryDy=0;entryPerimeter=0;" parent="1" edge="1">
          <mxGeometry width="50" height="50" relative="1" as="geometry">
            <mxPoint x="270.01" y="280" as="sourcePoint" />
            <mxPoint x="270" y="183.96000000000004" as="targetPoint" />
          </mxGeometry>
        </mxCell>
        <mxCell id="x_l_j-Csq6JPJfXTSIvp-41" value="" style="endArrow=classic;html=1;rounded=0;entryX=0.193;entryY=1.054;entryDx=0;entryDy=0;entryPerimeter=0;" parent="1" edge="1">
          <mxGeometry width="50" height="50" relative="1" as="geometry">
            <mxPoint x="300.17" y="280" as="sourcePoint" />
            <mxPoint x="300.00000000000006" y="183.23999999999995" as="targetPoint" />
          </mxGeometry>
        </mxCell>
        <mxCell id="x_l_j-Csq6JPJfXTSIvp-43" value="" style="shape=flexArrow;endArrow=classic;startArrow=classic;html=1;rounded=0;exitX=0.194;exitY=1.024;exitDx=0;exitDy=0;exitPerimeter=0;entryX=0.864;entryY=1.017;entryDx=0;entryDy=0;entryPerimeter=0;" parent="1" source="x_l_j-Csq6JPJfXTSIvp-10" target="x_l_j-Csq6JPJfXTSIvp-1" edge="1">
          <mxGeometry width="100" height="100" relative="1" as="geometry">
            <mxPoint x="535.77" y="319.21999999999997" as="sourcePoint" />
            <mxPoint x="481" y="180" as="targetPoint" />
            <Array as="points">
              <mxPoint x="528" y="320" />
            </Array>
          </mxGeometry>
        </mxCell>
        <mxCell id="x_l_j-Csq6JPJfXTSIvp-46" value="" style="endArrow=classic;html=1;rounded=0;entryX=0.193;entryY=1.054;entryDx=0;entryDy=0;entryPerimeter=0;" parent="1" edge="1">
          <mxGeometry width="50" height="50" relative="1" as="geometry">
            <mxPoint x="330" y="280" as="sourcePoint" />
            <mxPoint x="330" y="183" as="targetPoint" />
          </mxGeometry>
        </mxCell>
        <mxCell id="x_l_j-Csq6JPJfXTSIvp-47" value="" style="endArrow=classic;html=1;rounded=0;entryX=0.193;entryY=1.054;entryDx=0;entryDy=0;entryPerimeter=0;" parent="1" edge="1">
          <mxGeometry width="50" height="50" relative="1" as="geometry">
            <mxPoint x="360" y="277" as="sourcePoint" />
            <mxPoint x="360" y="180" as="targetPoint" />
          </mxGeometry>
        </mxCell>
        <mxCell id="x_l_j-Csq6JPJfXTSIvp-49" value="&lt;div&gt;page load&lt;/div&gt;" style="text;html=1;strokeColor=none;fillColor=none;align=center;verticalAlign=middle;whiteSpace=wrap;rounded=0;rotation=270;" parent="1" vertex="1">
          <mxGeometry x="230" y="220" width="60" height="30" as="geometry" />
        </mxCell>
        <mxCell id="x_l_j-Csq6JPJfXTSIvp-52" value="&lt;div&gt;page position&lt;/div&gt;" style="text;html=1;strokeColor=none;fillColor=none;align=center;verticalAlign=middle;whiteSpace=wrap;rounded=0;rotation=270;" parent="1" vertex="1">
          <mxGeometry x="250" y="220" width="80" height="30" as="geometry" />
        </mxCell>
        <mxCell id="x_l_j-Csq6JPJfXTSIvp-53" value="&lt;div&gt;page write&lt;br&gt;&lt;/div&gt;" style="text;html=1;strokeColor=none;fillColor=none;align=center;verticalAlign=middle;whiteSpace=wrap;rounded=0;rotation=270;" parent="1" vertex="1">
          <mxGeometry x="280" y="220" width="80" height="30" as="geometry" />
        </mxCell>
        <mxCell id="x_l_j-Csq6JPJfXTSIvp-54" value="data access" style="text;html=1;strokeColor=none;fillColor=none;align=center;verticalAlign=middle;whiteSpace=wrap;rounded=0;rotation=270;" parent="1" vertex="1">
          <mxGeometry x="310" y="220" width="80" height="30" as="geometry" />
        </mxCell>
        <mxCell id="x_l_j-Csq6JPJfXTSIvp-56" value="" style="endArrow=classic;html=1;rounded=0;entryX=0.193;entryY=1.054;entryDx=0;entryDy=0;entryPerimeter=0;" parent="1" edge="1">
          <mxGeometry width="50" height="50" relative="1" as="geometry">
            <mxPoint x="390" y="277" as="sourcePoint" />
            <mxPoint x="390" y="180" as="targetPoint" />
          </mxGeometry>
        </mxCell>
        <mxCell id="x_l_j-Csq6JPJfXTSIvp-58" value="data direction" style="text;html=1;strokeColor=none;fillColor=none;align=center;verticalAlign=middle;whiteSpace=wrap;rounded=0;rotation=270;" parent="1" vertex="1">
          <mxGeometry x="340" y="220" width="80" height="30" as="geometry" />
        </mxCell>
        <mxCell id="x_l_j-Csq6JPJfXTSIvp-59" value="" style="shape=flexArrow;endArrow=classic;html=1;rounded=0;entryX=0.63;entryY=1.015;entryDx=0;entryDy=0;entryPerimeter=0;" parent="1" target="x_l_j-Csq6JPJfXTSIvp-1" edge="1">
          <mxGeometry width="50" height="50" relative="1" as="geometry">
            <mxPoint x="420" y="310" as="sourcePoint" />
            <mxPoint x="480" y="270" as="targetPoint" />
            <Array as="points">
              <mxPoint x="455" y="310" />
            </Array>
          </mxGeometry>
        </mxCell>
        <mxCell id="x_l_j-Csq6JPJfXTSIvp-60" value="data offset" style="text;html=1;strokeColor=none;fillColor=none;align=center;verticalAlign=middle;whiteSpace=wrap;rounded=0;" parent="1" vertex="1">
          <mxGeometry x="455" y="220" width="50" height="30" as="geometry" />
        </mxCell>
        <mxCell id="x_l_j-Csq6JPJfXTSIvp-61" value="" style="shape=flexArrow;endArrow=classic;startArrow=classic;html=1;rounded=0;entryX=0;entryY=0.5;entryDx=0;entryDy=0;exitX=-0.003;exitY=0.211;exitDx=0;exitDy=0;exitPerimeter=0;" parent="1" source="x_l_j-Csq6JPJfXTSIvp-3" target="x_l_j-Csq6JPJfXTSIvp-1" edge="1">
          <mxGeometry width="100" height="100" relative="1" as="geometry">
            <mxPoint x="150" y="250" as="sourcePoint" />
            <mxPoint x="250" y="150" as="targetPoint" />
            <Array as="points">
              <mxPoint x="200" y="320" />
              <mxPoint x="200" y="230" />
              <mxPoint x="200" y="150" />
            </Array>
          </mxGeometry>
        </mxCell>
        <mxCell id="x_l_j-Csq6JPJfXTSIvp-62" value="" style="shape=flexArrow;endArrow=classic;startArrow=classic;html=1;rounded=0;entryX=-0.026;entryY=0.428;entryDx=0;entryDy=0;entryPerimeter=0;" parent="1" target="x_l_j-Csq6JPJfXTSIvp-3" edge="1">
          <mxGeometry width="100" height="100" relative="1" as="geometry">
            <mxPoint x="90" y="361" as="sourcePoint" />
            <mxPoint x="140" y="310" as="targetPoint" />
          </mxGeometry>
        </mxCell>
        <mxCell id="x_l_j-Csq6JPJfXTSIvp-63" value="" style="shape=flexArrow;endArrow=classic;html=1;rounded=0;exitX=0;exitY=0.684;exitDx=0;exitDy=0;exitPerimeter=0;" parent="1" source="x_l_j-Csq6JPJfXTSIvp-3" edge="1">
          <mxGeometry width="50" height="50" relative="1" as="geometry">
            <mxPoint x="130" y="450" as="sourcePoint" />
            <mxPoint x="90" y="410" as="targetPoint" />
          </mxGeometry>
        </mxCell>
        <mxCell id="x_l_j-Csq6JPJfXTSIvp-64" value="data line" style="text;html=1;strokeColor=none;fillColor=none;align=center;verticalAlign=middle;whiteSpace=wrap;rounded=0;" parent="1" vertex="1">
          <mxGeometry x="30" y="340" width="60" height="30" as="geometry" />
        </mxCell>
        <mxCell id="x_l_j-Csq6JPJfXTSIvp-65" value="instruction line" style="text;html=1;strokeColor=none;fillColor=none;align=center;verticalAlign=middle;whiteSpace=wrap;rounded=0;" parent="1" vertex="1">
          <mxGeometry x="30" y="390" width="60" height="30" as="geometry" />
        </mxCell>
        <mxCell id="x_l_j-Csq6JPJfXTSIvp-66" value="" style="endArrow=classic;html=1;rounded=0;entryX=0.124;entryY=1.008;entryDx=0;entryDy=0;entryPerimeter=0;exitX=1;exitY=0.667;exitDx=0;exitDy=0;exitPerimeter=0;" parent="1" source="x_l_j-Csq6JPJfXTSIvp-68" target="x_l_j-Csq6JPJfXTSIvp-3" edge="1">
          <mxGeometry width="50" height="50" relative="1" as="geometry">
            <mxPoint x="123.52" y="510.42" as="sourcePoint" />
            <mxPoint x="279.9999999999999" y="509.99999999999994" as="targetPoint" />
            <Array as="points">
              <mxPoint x="280" y="510" />
            </Array>
          </mxGeometry>
        </mxCell>
        <mxCell id="x_l_j-Csq6JPJfXTSIvp-68" value="data request" style="text;html=1;strokeColor=none;fillColor=none;align=center;verticalAlign=middle;whiteSpace=wrap;rounded=0;" parent="1" vertex="1">
          <mxGeometry x="30" y="490" width="90" height="30" as="geometry" />
        </mxCell>
        <mxCell id="x_l_j-Csq6JPJfXTSIvp-69" value="" style="endArrow=classic;html=1;rounded=0;entryX=0.349;entryY=1.026;entryDx=0;entryDy=0;entryPerimeter=0;exitX=1;exitY=0.5;exitDx=0;exitDy=0;" parent="1" source="x_l_j-Csq6JPJfXTSIvp-70" edge="1">
          <mxGeometry width="50" height="50" relative="1" as="geometry">
            <mxPoint x="120" y="545.06" as="sourcePoint" />
            <mxPoint x="315.84000000000003" y="469.99999999999994" as="targetPoint" />
            <Array as="points">
              <mxPoint x="316" y="545" />
            </Array>
          </mxGeometry>
        </mxCell>
        <mxCell id="x_l_j-Csq6JPJfXTSIvp-70" value="data direction" style="text;html=1;strokeColor=none;fillColor=none;align=center;verticalAlign=middle;whiteSpace=wrap;rounded=0;" parent="1" vertex="1">
          <mxGeometry x="30" y="530" width="90" height="30" as="geometry" />
        </mxCell>
        <mxCell id="x_l_j-Csq6JPJfXTSIvp-71" value="" style="endArrow=classic;html=1;rounded=0;entryX=0.5;entryY=1;entryDx=0;entryDy=0;exitX=1.027;exitY=0.633;exitDx=0;exitDy=0;exitPerimeter=0;" parent="1" source="x_l_j-Csq6JPJfXTSIvp-72" edge="1">
          <mxGeometry width="50" height="50" relative="1" as="geometry">
            <mxPoint x="130" y="580" as="sourcePoint" />
            <mxPoint x="350" y="470" as="targetPoint" />
            <Array as="points">
              <mxPoint x="350" y="580" />
            </Array>
          </mxGeometry>
        </mxCell>
        <mxCell id="x_l_j-Csq6JPJfXTSIvp-72" value="instruction request" style="text;html=1;strokeColor=none;fillColor=none;align=center;verticalAlign=middle;whiteSpace=wrap;rounded=0;" parent="1" vertex="1">
          <mxGeometry x="20" y="560" width="100" height="30" as="geometry" />
        </mxCell>
        <mxCell id="AZ_gkQ46gG5uaX6o3Xvu-1" value="Word data" style="text;html=1;strokeColor=none;fillColor=none;align=center;verticalAlign=middle;whiteSpace=wrap;rounded=0;" vertex="1" parent="1">
          <mxGeometry x="120" y="200" width="60" height="30" as="geometry" />
        </mxCell>
      </root>
    </mxGraphModel>
  </diagram>
</mxfile>
